<svg width="39" height="26" viewBox="0 0 39 26" fill="none" xmlns="http://www.w3.org/2000/svg">
<path d="M1.95225 0.217407H36.9523C37.1756 0.221698 37.3959 0.270012 37.6006 0.359497C37.8052 0.448982 37.9903 0.577853 38.1451 0.738892C38.2999 0.899931 38.4214 1.08993 38.5028 1.29797C38.5841 1.50602 38.6238 1.72795 38.6192 1.95129V23.6256C38.6238 23.849 38.5841 24.0709 38.5028 24.2789C38.4214 24.487 38.2999 24.677 38.1451 24.838C37.9903 24.9991 37.8052 25.1279 37.6006 25.2174C37.3959 25.3069 37.1756 25.3552 36.9523 25.3595H1.95225C1.72891 25.3552 1.50862 25.3069 1.30394 25.2174C1.09926 25.1279 0.914197 24.9991 0.75938 24.838C0.604564 24.677 0.482946 24.487 0.401592 24.2789C0.320238 24.0709 0.28075 23.849 0.285259 23.6256V1.95129C0.28075 1.72795 0.320238 1.50602 0.401592 1.29797C0.482946 1.08993 0.604564 0.899931 0.75938 0.738892C0.914197 0.577853 1.09926 0.448982 1.30394 0.359497C1.50862 0.270012 1.72891 0.221698 1.95225 0.217407Z" fill="url(#paint0_linear_1_23)"/>
<defs>
<linearGradient id="paint0_linear_1_23" x1="19.4523" y1="25.3595" x2="19.4523" y2="0.217407" gradientUnits="userSpaceOnUse">
<stop stop-color="#E59703"/>
<stop offset="0.231" stop-color="#E59703"/>
<stop offset="0.234" stop-color="white"/>
<stop offset="0.761" stop-color="white"/>
<stop offset="0.766" stop-color="#5457BB"/>
<stop offset="1" stop-color="#5457BB"/>
</linearGradient>
</defs>
</svg>
