<svg width="18" height="16" viewBox="0 0 18 16" fill="none" xmlns="http://www.w3.org/2000/svg">
<path fill-rule="evenodd" clip-rule="evenodd" d="M12.4051 2.94082C13.0189 2.94184 13.6193 3.12012 14.1344 3.45425C14.6494 3.78838 15.057 4.26415 15.3084 4.82443C15.5598 5.38472 15.6441 6.00568 15.5514 6.61277C15.4586 7.21987 15.1927 7.78726 14.7856 8.24684C14.2011 8.90611 9.21687 13.5741 9.21687 13.5741C9.21687 13.5741 4.22202 8.9061 3.63752 8.2362C3.12192 7.65646 2.83813 6.90685 2.84047 6.13082C2.84047 5.28478 3.17635 4.47337 3.77425 3.87513C4.37216 3.27689 5.18311 2.94082 6.02867 2.94082C6.87424 2.94082 7.68519 3.27689 8.28309 3.87513C8.88099 4.47337 9.21687 5.28478 9.21687 6.13082C9.21687 5.28478 9.55275 4.47337 10.1507 3.87513C10.7486 3.27689 11.5595 2.94082 12.4051 2.94082ZM12.4051 0.814157C11.255 0.812073 10.1357 1.1854 9.21687 1.87749C8.16439 1.09972 6.86211 0.737824 5.55951 0.861145C4.2569 0.984465 3.04553 1.58436 2.15751 2.54584C1.2695 3.50732 0.76725 4.76282 0.746976 6.07182C0.726703 7.38083 1.18988 8.65125 2.0477 9.6398C2.64495 10.3246 6.57599 14.008 7.76625 15.1202C8.15998 15.4886 8.67886 15.6935 9.21791 15.6935C9.75696 15.6935 10.2759 15.4886 10.6696 15.1202C11.8556 14.009 15.7708 10.3352 16.3755 9.65149C17.0523 8.88517 17.4939 7.9398 17.6473 6.92871C17.8007 5.91761 17.6594 4.8837 17.2403 3.95094C16.8212 3.01817 16.1422 2.22611 15.2846 1.66974C14.427 1.11338 13.4272 0.81633 12.4051 0.814157Z" fill="#33A0FF"/>
</svg>
