<svg width="25" height="25" viewBox="0 0 25 25" fill="none" xmlns="http://www.w3.org/2000/svg">
<path d="M9.3418 21.6951C9.65246 21.6951 9.9043 21.4432 9.9043 21.1326C9.9043 20.8219 9.65246 20.5701 9.3418 20.5701C9.03114 20.5701 8.7793 20.8219 8.7793 21.1326C8.7793 21.4432 9.03114 21.6951 9.3418 21.6951Z" fill="#22262A" stroke="#22262A" stroke-width="2" stroke-miterlimit="10" stroke-linecap="round" stroke-linejoin="round"/>
<path d="M17.2168 21.6951C17.5275 21.6951 17.7793 21.4432 17.7793 21.1326C17.7793 20.8219 17.5275 20.5701 17.2168 20.5701C16.9061 20.5701 16.6543 20.8219 16.6543 21.1326C16.6543 21.4432 16.9061 21.6951 17.2168 21.6951Z" fill="#22262A" stroke="#22262A" stroke-width="2" stroke-miterlimit="10" stroke-linecap="round" stroke-linejoin="round"/>
<path d="M3.1543 3.69507H5.4043L7.6543 17.1951H18.9043L21.1543 7.07007H6.5293" stroke="#22262A" stroke-width="2" stroke-linecap="round" stroke-linejoin="round"/>
</svg>
